<?xml version="1.0" standalone="no"?>
<!DOCTYPE svg PUBLIC "-//W3C//DTD SVG 20010904//EN"
 "http://www.w3.org/TR/2001/REC-SVG-20010904/DTD/svg10.dtd">
<svg version="1.0" xmlns="http://www.w3.org/2000/svg"
 width="512.000000pt" height="512.000000pt" viewBox="0 0 512.000000 512.000000"
 preserveAspectRatio="xMidYMid meet">

<g transform="translate(0.000000,512.000000) scale(0.100000,-0.100000)"
fill="#000000" stroke="none">
<path d="M2773 5049 c-92 -12 -180 -36 -250 -68 l-62 -29 -60 18 c-148 46
-373 51 -524 10 -43 -11 -131 -47 -195 -79 -64 -32 -135 -64 -157 -71 -249
-77 -504 -357 -580 -635 -23 -84 -31 -249 -15 -316 24 -102 68 -178 152 -263
l78 -79 -34 -63 c-20 -35 -42 -88 -51 -118 -22 -74 -10 -117 66 -232 43 -65
73 -129 110 -230 84 -233 130 -298 239 -333 l51 -17 -57 -69 c-136 -166 -281
-417 -395 -685 -66 -157 -180 -490 -225 -662 l-29 -108 -51 0 c-63 0 -120 -37
-157 -102 -77 -134 -67 -273 26 -355 l33 -29 -13 -100 c-7 -54 -13 -136 -14
-180 -2 -103 22 -155 90 -191 l44 -23 1637 0 1637 0 44 23 c52 28 89 87 92
146 1 39 2 40 69 66 139 55 240 142 295 254 24 49 28 68 28 147 0 84 -3 95
-38 166 -27 55 -54 92 -98 132 l-61 57 24 57 c19 48 23 74 23 167 -1 97 -5
121 -33 202 -63 185 -141 321 -450 786 -114 171 -222 335 -239 364 l-32 52 48
-6 c36 -4 59 0 94 15 70 31 100 91 162 323 43 160 73 226 128 286 24 26 49 58
56 70 22 42 13 97 -29 179 -22 43 -51 113 -66 157 -29 88 -28 131 6 198 37 71
53 165 47 279 l-5 104 46 51 c88 97 130 238 111 372 -11 78 -36 124 -87 155
-30 18 -57 24 -147 29 -85 5 -167 20 -360 67 -451 110 -701 140 -922 111z
m368 -124 c146 -17 352 -58 604 -122 132 -33 208 -46 283 -50 93 -5 104 -8
121 -30 56 -70 19 -255 -66 -335 l-28 -27 -50 31 c-192 120 -329 109 -400 -31
-13 -26 -40 -108 -60 -182 -43 -160 -70 -222 -119 -277 -33 -36 -106 -82 -132
-82 -5 0 -18 39 -27 88 -23 113 -86 301 -137 410 -107 227 -284 429 -479 544
l-43 26 38 12 c116 39 301 48 495 25z m-777 -69 c399 -119 670 -456 786 -974
10 -49 29 -160 40 -247 60 -451 191 -736 659 -1438 252 -379 313 -479 382
-621 130 -269 130 -445 -2 -542 -27 -20 -63 -56 -81 -81 l-31 -46 -66 7 c-131
12 -435 98 -484 136 -31 25 -278 391 -397 590 -128 212 -190 347 -245 530 -95
317 -207 520 -346 624 -32 24 -108 65 -171 91 -269 112 -364 178 -420 293 -31
63 -33 73 -33 172 1 89 7 131 44 280 47 195 60 315 42 402 -26 123 -127 268
-188 268 -32 0 -46 -12 -57 -46 -5 -16 4 -34 35 -70 40 -48 89 -136 89 -161 0
-7 -5 -13 -11 -13 -21 0 -173 82 -244 131 -58 41 -79 50 -99 45 -31 -8 -50
-40 -42 -72 11 -43 233 -180 375 -231 25 -9 32 -16 27 -28 -3 -9 -6 -26 -6
-37 0 -20 -4 -21 -102 -15 -206 12 -355 73 -482 197 -69 68 -78 82 -73 106 11
61 -39 102 -86 71 -33 -22 -58 -112 -64 -232 -4 -82 -1 -111 15 -162 11 -35
18 -63 16 -63 -1 0 -17 21 -35 47 -118 171 -81 439 92 674 89 121 202 210 336
264 37 15 129 56 203 91 174 83 228 95 400 90 110 -3 152 -9 224 -30z m1531
-542 c39 -19 78 -41 88 -49 24 -17 36 -72 37 -159 0 -61 -2 -67 -17 -61 -47
19 -104 33 -166 40 -85 9 -117 -7 -117 -59 0 -44 12 -52 91 -60 37 -3 89 -13
117 -21 l50 -15 -19 -55 c-10 -30 -19 -64 -19 -75 0 -25 -32 -27 -83 -5 -46
19 -84 6 -93 -31 -14 -53 42 -94 141 -101 l63 -6 17 -46 c10 -25 35 -79 56
-119 42 -77 42 -88 -2 -127 -12 -11 -39 -45 -59 -76 l-36 -57 -38 13 c-21 8
-43 18 -49 24 -16 16 -58 13 -79 -6 -31 -28 -23 -69 20 -98 20 -13 52 -29 70
-36 17 -6 32 -14 32 -19 0 -4 -13 -56 -29 -116 -36 -138 -67 -211 -93 -220
-21 -6 -130 12 -161 28 -9 5 -47 68 -83 141 -124 247 -191 448 -217 653 l-13
102 40 12 c101 29 198 118 247 226 16 35 46 124 65 197 39 142 63 200 91 216
26 15 68 5 148 -35z m-2517 -502 c111 -72 319 -132 453 -132 58 0 57 4 28
-117 -43 -184 -35 -332 25 -451 29 -58 100 -138 155 -176 23 -16 41 -32 41
-36 0 -4 -19 -13 -42 -19 -67 -20 -180 -75 -244 -118 -91 -62 -143 -85 -204
-90 -65 -6 -107 10 -138 54 -22 32 -94 211 -90 223 2 5 32 24 68 42 77 40 101
75 76 113 -25 38 -49 39 -109 5 -29 -16 -60 -30 -69 -30 -8 0 -45 46 -82 103
-55 83 -67 107 -63 132 7 43 79 164 98 165 29 0 115 50 136 78 33 44 36 66 12
95 -27 35 -54 34 -89 -3 -34 -36 -50 -38 -50 -6 0 14 -11 61 -25 106 -15 44
-29 104 -32 133 l-6 52 44 -42 c24 -22 72 -59 107 -81z m1035 -1060 c168 -83
298 -285 398 -619 48 -158 83 -246 144 -361 25 -46 45 -86 45 -88 0 -8 -321
-214 -458 -295 l-137 -80 -22 28 c-13 15 -127 170 -254 343 -128 173 -239 321
-247 328 -36 29 -92 0 -92 -47 0 -18 53 -98 169 -256 l170 -229 -22 -31 c-147
-206 -419 -496 -539 -573 l-66 -43 -129 25 c-70 13 -157 27 -193 31 -101 10
-240 45 -240 59 0 28 111 400 164 548 227 639 522 1063 851 1223 126 62 181
75 296 72 85 -2 103 -6 162 -35z m856 -1491 c170 -256 198 -291 256 -323 112
-62 446 -148 577 -148 77 0 96 11 137 85 27 48 35 55 61 55 73 0 180 -152 180
-255 -1 -127 -110 -243 -282 -299 -157 -51 -249 -61 -568 -61 -442 1 -449 4
-709 325 -131 162 -441 562 -441 570 0 3 60 40 134 83 74 43 205 124 292 182
l159 104 40 -66 c22 -36 96 -149 164 -252z m-885 -124 l156 -208 -55 -63
c-309 -350 -792 -604 -1057 -556 -148 27 -516 191 -597 267 -25 23 -62 53 -81
66 -52 34 -64 66 -50 132 13 60 47 118 73 123 10 2 30 -10 45 -26 38 -40 125
-70 272 -93 69 -11 186 -31 260 -44 163 -30 160 -30 213 -4 138 71 336 257
527 497 90 113 116 140 125 130 7 -7 82 -107 169 -221z m391 -508 c240 -303
334 -383 496 -423 109 -27 611 -20 777 10 36 7 44 -12 16 -40 -14 -14 -101
-16 -805 -16 l-789 0 0 256 0 256 72 80 c69 76 73 79 88 60 8 -10 73 -93 145
-183z m-425 -264 l0 -205 -769 0 c-713 0 -771 1 -787 17 -15 15 -16 32 -10
136 3 65 8 123 11 128 3 5 23 -2 44 -15 121 -76 374 -182 531 -223 78 -20 108
-23 170 -17 225 20 487 134 715 312 50 39 91 71 93 71 1 1 2 -91 2 -204z"/>
</g>
</svg>
